<?xml version="1.0" encoding="utf-8"?>
<!-- Generator: Adobe Illustrator 16.0.0, SVG Export Plug-In . SVG Version: 6.00 Build 0)  -->
<!DOCTYPE svg PUBLIC "-//W3C//DTD SVG 1.1//EN" "http://www.w3.org/Graphics/SVG/1.1/DTD/svg11.dtd">
<svg version="1.1" id="Layer_1" xmlns="http://www.w3.org/2000/svg" xmlns:xlink="http://www.w3.org/1999/xlink" x="0px" y="0px"
	 width="85.244px" height="90px" viewBox="-12.622 -3.243 85.244 90" enable-background="new -12.622 -3.243 85.244 90"
	 xml:space="preserve">
<g>
	<g>
		<path fill="#2F2F39" d="M-4.684,82.779c-1.492,0-2.848-0.321-4.063-0.962c-1.2-0.656-2.15-1.558-2.849-2.702
			c-0.683-1.157-1.026-2.465-1.026-3.916c0-1.45,0.343-2.748,1.026-3.891c0.699-1.159,1.649-2.06,2.849-2.702
			c1.215-0.655,2.576-0.982,4.085-0.982c1.272,0,2.416,0.222,3.435,0.668c1.035,0.446,1.898,1.089,2.596,1.927l-2.175,2.01
			c-0.992-1.145-2.221-1.715-3.687-1.715c-0.908,0-1.716,0.202-2.428,0.606c-0.713,0.391-1.271,0.942-1.677,1.655
			c-0.389,0.711-0.585,1.519-0.585,2.427c0,0.907,0.196,1.716,0.585,2.427c0.406,0.714,0.964,1.272,1.677,1.677
			c0.712,0.39,1.52,0.586,2.428,0.586c1.466,0,2.695-0.579,3.687-1.738l2.175,2.012c-0.697,0.853-1.562,1.5-2.596,1.948
			C-2.26,82.555-3.411,82.779-4.684,82.779z"/>
		<path fill="#2F2F39" d="M7.894,71.095c1.745,0,3.085,0.417,4.02,1.256c0.935,0.822,1.406,2.073,1.406,3.748v6.428h-3.059v-1.403
			c-0.616,1.047-1.762,1.57-3.435,1.57c-0.867,0-1.621-0.146-2.262-0.437c-0.628-0.294-1.111-0.698-1.445-1.215
			c-0.335-0.518-0.502-1.104-0.502-1.759c0-1.049,0.391-1.87,1.171-2.473c0.797-0.601,2.018-0.899,3.666-0.899h2.599
			c0-0.714-0.217-1.256-0.648-1.634c-0.433-0.392-1.082-0.587-1.948-0.587c-0.6,0-1.195,0.096-1.779,0.291
			c-0.574,0.183-1.062,0.435-1.467,0.754l-1.172-2.282c0.613-0.432,1.348-0.767,2.199-1.005C6.101,71.214,6.988,71.095,7.894,71.095
			z M7.643,80.495c0.559,0,1.056-0.125,1.487-0.377c0.433-0.264,0.739-0.648,0.923-1.15v-1.152H7.81
			c-1.34,0-2.009,0.438-2.009,1.321c0,0.417,0.159,0.751,0.48,1.003C6.616,80.379,7.07,80.495,7.643,80.495z"/>
		<path fill="#2F2F39" d="M16.275,66.992h3.268v15.535h-3.268V66.992z"/>
		<path fill="#2F2F39" d="M22.575,66.992h3.267v15.535h-3.267V66.992z"/>
		<path fill="#2F2F39" d="M40.058,71.262L34.967,83.22c-0.515,1.297-1.157,2.212-1.924,2.741c-0.755,0.531-1.671,0.796-2.744,0.796
			c-0.586,0-1.166-0.091-1.739-0.272c-0.573-0.183-1.039-0.431-1.402-0.753l1.193-2.325c0.251,0.223,0.538,0.397,0.858,0.525
			c0.335,0.125,0.664,0.186,0.982,0.186c0.449,0,0.812-0.11,1.089-0.334c0.283-0.209,0.533-0.563,0.755-1.068l0.043-0.102
			l-4.881-11.352h3.373l3.161,7.643l3.184-7.643H40.058z"/>
		<path fill="#2F2F39" d="M50.462,80.015v2.513H40.409v-1.967l5.74-6.787h-5.592v-2.512h9.718v1.969l-5.739,6.784H50.462z"/>
		<path fill="#2F2F39" d="M63.453,76.937c0,0.041-0.022,0.335-0.063,0.878h-8.526c0.156,0.698,0.519,1.249,1.09,1.653
			c0.573,0.406,1.286,0.608,2.138,0.608c0.589,0,1.105-0.083,1.549-0.251c0.464-0.183,0.889-0.46,1.28-0.838l1.737,1.886
			c-1.063,1.214-2.612,1.82-4.65,1.82c-1.272,0-2.396-0.242-3.374-0.732c-0.976-0.501-1.729-1.19-2.261-2.073
			c-0.53-0.878-0.797-1.877-0.797-2.993c0-1.103,0.259-2.093,0.774-2.974c0.531-0.892,1.249-1.584,2.157-2.072
			c0.922-0.503,1.949-0.754,3.079-0.754c1.102,0,2.101,0.235,2.994,0.711c0.893,0.476,1.593,1.159,2.096,2.052
			C63.195,74.739,63.453,75.764,63.453,76.937z M57.607,73.568c-0.74,0-1.36,0.206-1.862,0.627c-0.503,0.417-0.811,0.99-0.922,1.717
			h5.553c-0.114-0.714-0.422-1.277-0.924-1.697C58.95,73.781,58.336,73.568,57.607,73.568z"/>
		<path fill="#2F2F39" d="M68.748,72.748c0.393-0.544,0.914-0.955,1.571-1.234c0.671-0.277,1.441-0.416,2.303-0.416v3.014
			c-0.363-0.03-0.606-0.04-0.732-0.04c-0.934,0-1.671,0.263-2.198,0.795c-0.533,0.517-0.799,1.298-0.799,2.345v5.317h-3.264V71.263
			h3.119V72.748z"/>
	</g>
	<path fill="#FF4444" d="M34.2,49.557h7.2v7.2h-7.2V49.557z"/>
	<path fill="#FFA500" d="M43,40.757h7.2v16H43V40.757z"/>
	<path fill="#99CC00" d="M51.8,33.557H59v23.2h-7.2V33.557z"/>
	<path fill="#2F2F39" d="M38.784,29.919c-0.693-0.621-1.589-0.964-2.521-0.964c-1.063,0-2.078,0.449-2.789,1.229l-0.818,0.896
		c-0.35,0.384-0.61,0.825-0.775,1.313l-0.072,0.217l-0.216-0.084c-3.647-1.429-6.622-4.137-8.372-7.624l-0.115-0.229l0.248-0.075
		c0.654-0.195,1.242-0.565,1.703-1.07l0.816-0.896c0.674-0.74,1.018-1.695,0.967-2.691c-0.05-0.995-0.488-1.912-1.232-2.58
		l-1.381-1.238c-0.692-0.622-1.588-0.964-2.521-0.964c-1.062,0-2.078,0.447-2.79,1.229l-0.818,0.897
		c-0.104,0.114-0.205,0.24-0.301,0.377l-0.038,0.041c-0.772,0.655-1.429,2.249-1.048,4.202c1.757,9.082,9.467,16.002,18.749,16.828
		c1.218,0.11,2.364-0.14,3.233-0.669c0.348-0.2,0.654-0.445,0.918-0.734l0.818-0.897c1.391-1.526,1.271-3.892-0.268-5.271
		L38.784,29.919z"/>
	<path fill="#FF4444" d="M14.141,44.05l-4.757,5.404C14.643,54.003,21.5,56.757,29,56.757c0.671,0,1.4,0,2,0v-7.2
		c-0.6,0-1.326,0-2,0C23.324,49.557,18.131,47.482,14.141,44.05z"/>
	<path fill="#FFA500" d="M11.339,41.178C8.127,37.247,6.2,32.228,6.2,26.757C6.2,14.164,16.408,3.956,29,3.956
		c4.428,0,8.561,1.263,12.061,3.447l4.806-5.461C41.061-1.329,35.253-3.243,29-3.243c-16.568,0-30,13.432-30,30
		c0,7.626,2.846,14.588,7.533,19.882L11.339,41.178z"/>
	<path fill="#99CC00" d="M51.8,29.557c0-1.2,0-1.601,0-2.8c0-6.723-2.907-12.766-7.536-16.938l4.758-5.406
		C55.146,9.906,59,17.882,59,26.757c0,0.943,0,1.6,0,2.8H51.8z"/>
</g>
</svg>
